<svg xmlns="http://www.w3.org/2000/svg" width="40" height="40" viewBox="0 0 40 40"><defs><clipPath id="y0j8a"><path d="M0 0h40v40H0z"/></clipPath><clipPath id="y0j8b"><path d="M0 40h40V0H0z"/></clipPath></defs><g><g><g><g/><g clip-path="url(#y0j8a)"><path d="M39.334 0c.368 0 .666.298.666.666v38.667a.667.667 0 0 1-.666.667h-16a.667.667 0 0 1-.667-.667v-8.667h-3.333a.666.666 0 0 1-.667-.666v-3.334c0-.368.298-.666.667-.666H26v-1.334h-2a.666.666 0 0 1-.666-.666v-2.667c0-.368.298-.667.666-.667h3.334V16c0-.369.298-.667.666-.667h2.667c.368 0 .667.298.667.667v8a.666.666 0 0 1-.667.666H30V26h3.334V6.666H.667A.667.667 0 0 1 0 6V3.333c0-.223.111-.43.297-.555l4-2.666A.665.665 0 0 1 4.667 0zM28.667 20.666H30v-4h-1.333zm-4 2.667H30V22h-5.333zM27.334 26h1.343v-1.333h-1.343zm11.333 4.666H24V36h2.667v1.333H24v1.333h14.667zM20 29.333h18.667v-2H20zM34.667 26h4V6.667h-4zm4.01-24.667H4.867L1.335 3.69v1.643h37.343z"/></g></g><g/><g clip-path="url(#y0j8b)"><path d="M36 4h1V3h-1z"/></g><g clip-path="url(#y0j8b)"><path d="M33 4h1V3h-1z"/></g><g clip-path="url(#y0j8b)"><path d="M5 4h1V3H5z"/></g><g clip-path="url(#y0j8b)"><path d="M8 4h1V3H8z"/></g><g clip-path="url(#y0j8b)"><path d="M17 28.667c0 .13-.039.259-.11.368l-2.505 3.832V36h1.961a.66.66 0 0 1 .654.667v2.666a.66.66 0 0 1-.654.667H.654A.66.66 0 0 1 0 39.333v-2.666A.66.66 0 0 1 .654 36h1.962v-3.133l-2.51-3.83a.674.674 0 0 1-.106-.37v-16h.003a.674.674 0 0 1 .107-.37l2.615-4A.65.65 0 0 1 3.27 8h10.46c.22-.001.426.11.548.297l2.615 4a.68.68 0 0 1 .107.37zM1.308 28h14.385V13.333H1.308zm.567-16h13.24l-1.743-2.667H3.618zm2.048 24H5.23v-2.667H3.923zm2.616 0h3.923v-2.667H6.539zm-5.231 2.677h14.384v-1.344H1.308zM11.769 36h1.307v-2.667H11.77zm3.345-6.667H1.875L3.618 32h9.754z"/></g><g clip-path="url(#y0j8b)"><path d="M13 14c1.105 0 2 .94 2 2.1v2.8a.694.694 0 0 1-.505.679l-5.333 1.4a.627.627 0 0 1-.323 0l-5.333-1.4A.694.694 0 0 1 3 18.9v-2.8c0-1.16.895-2.1 2-2.1zm.677 2.1c0-.386-.299-.7-.668-.7H5.001c-.369 0-.667.314-.667.7v2.253l4.671 1.226 4.672-1.226z"/></g><g clip-path="url(#y0j8b)"><path d="M14.172 21.019a.744.744 0 0 1 .161-.019c.369 0 .667.28.667.625v2.5a.634.634 0 0 1-.505.606l-5.333 1.25a.7.7 0 0 1-.323 0l-5.333-1.25A.634.634 0 0 1 3 24.125v-2.5c0-.051.007-.102.02-.15.09-.336.45-.54.808-.456L9 22.23zM4.334 23.63l4 .933V23.36l-4-.933zm9.333-1.205l-4 .933v1.205l4-.933z"/></g></g></g></svg>