<svg xmlns="http://www.w3.org/2000/svg" width="42" height="42" viewBox="0 0 42 42"><defs><clipPath id="g5x1a"><path d="M6 12h30.51v17.694H6z"/></clipPath></defs><g><g><g><path fill="none" stroke="#000" stroke-miterlimit="20" stroke-width="2" d="M21 41c11.046 0 20-8.954 20-20S32.046 1 21 1 1 9.954 1 21s8.954 20 20 20z"/></g><g><g/><g clip-path="url(#g5x1a)"><path d="M33.562 20.755l-6.453-6.452a1.145 1.145 0 0 0-.778-.303c-.285 0-.55.107-.745.303-.4.424-.408 1.115 0 1.522l4.616 4.616H11.663l4.615-4.616c.408-.407.4-1.098 0-1.522a1.042 1.042 0 0 0-.745-.303c-.294 0-.577.114-.778.303l-6.452 6.452c-.408.408-.4 1.099 0 1.523l6.409 6.409c.208.208.456.313.74.313.222 0 .523-.072.705-.276l.034-.037c.408-.408.4-1.1 0-1.523l-4.615-4.616h18.713l-4.616 4.616c-.4.424-.407 1.115 0 1.523l.035.037c.181.204.483.276.705.276.283 0 .532-.105.74-.313l6.409-6.41c.4-.423.408-1.114 0-1.522"/></g></g></g></g></svg>