<svg xmlns="http://www.w3.org/2000/svg" width="40" height="40" viewBox="0 0 40 40"><defs><clipPath id="ygo1a"><path d="M2.67 0h5.333v40H2.67z"/></clipPath><clipPath id="ygo1b"><path d="M32 0h5.333v40H32z"/></clipPath><clipPath id="ygo1c"><path d="M0 40h40V0H0z"/></clipPath></defs><g><g><g><g/><g clip-path="url(#ygo1a)"><path d="M4.003 38.676V1.55c0-.12.098-.217.217-.217h2.233c.12 0 .217.098.217.217v37.126zM2.67 40h5.333V1.55A1.55 1.55 0 0 0 6.453 0H4.22a1.55 1.55 0 0 0-1.55 1.55z"/></g></g><g><g/><g clip-path="url(#ygo1b)"><path d="M32 1.55C32 .694 32.694 0 33.55 0h2.232c.857 0 1.551.694 1.551 1.55V40H32zm1.333 37.126H36V1.55a.218.218 0 0 0-.218-.217H33.55a.217.217 0 0 0-.217.217z"/></g></g><g/><g clip-path="url(#ygo1c)"><path d="M32.67 3.33c.368 0 .666.299.666.667V7.33a.666.666 0 0 1-.666.667H7.336a.666.666 0 0 1-.666-.667V3.997c0-.368.298-.667.666-.667zM8.003 6.663h24v-2h-24z"/></g><g clip-path="url(#ygo1c)"><path d="M36.667 7.997A.667.667 0 0 1 36 7.33V3.997c0-.368.298-.667.667-.667h2.666c.369 0 .667.299.667.667V7.33a.667.667 0 0 1-.667.667zm.666-1.334h1.343v-2h-1.343z"/></g><g clip-path="url(#ygo1c)"><path d="M.667 7.997A.667.667 0 0 1 0 7.33V3.997c0-.368.298-.667.667-.667h2.666c.369 0 .667.299.667.667V7.33a.667.667 0 0 1-.667.667zm.666-1.334h1.343v-2H1.333z"/></g><g clip-path="url(#ygo1c)"><path d="M3.337 32.663h4a.666.666 0 1 0 0-1.333h-4a.666.666 0 1 0 0 1.333"/></g><g clip-path="url(#ygo1c)"><path d="M32.667 32.663h4a.667.667 0 1 0 0-1.333h-4a.666.666 0 1 0 0 1.333"/></g><g clip-path="url(#ygo1c)"><path d="M7.336 10.67a.666.666 0 0 1-.666-.666V7.337c0-.368.298-.667.666-.667H32.67c.368 0 .666.299.666.667v2.667a.666.666 0 0 1-.666.666zm.667-1.323h24V8.004h-24z"/></g><g clip-path="url(#ygo1c)"><path d="M20.663 17.997v-8a.666.666 0 1 0-1.333 0v8a.666.666 0 1 0 1.333 0"/></g><g clip-path="url(#ygo1c)"><path d="M19.333 21.327v-.114c0-.78.237-1.535.672-2.17.435.635.671 1.39.671 2.17v.114zm2 1.336a.666.666 0 0 0 .667-.666v-.782c0-1.384-.55-2.71-1.529-3.69a.666.666 0 0 0-.942 0A5.215 5.215 0 0 0 18 21.215v.782c0 .368.298.666.666.666z"/></g><g clip-path="url(#ygo1c)"><path d="M19.33 21.997v2a.666.666 0 0 0 1.333 0v-2a.666.666 0 1 0-1.333 0"/></g><g clip-path="url(#ygo1c)"><path d="M17.33 25.997a2.666 2.666 0 1 0 2.667-2.667.667.667 0 1 0 0 1.333 1.333 1.333 0 1 1-1.334 1.334.666.666 0 1 0-1.333 0"/></g></g></g></svg>