<svg xmlns="http://www.w3.org/2000/svg" width="52" height="40" viewBox="0 0 52 40"><defs><clipPath id="ax92a"><path d="M0 0h51.419v40H0z"/></clipPath></defs><g><g><g/><g clip-path="url(#ax92a)"><path d="M25.71 0c9.916 0 18.973 4.04 25.25 10.821a1.719 1.719 0 0 1-2.518 2.34c-5.623-6.075-13.75-9.732-22.732-9.732-8.983 0-17.11 3.657-22.732 9.732a1.718 1.718 0 1 1-2.519-2.34C6.736 4.041 15.794 0 25.71 0m0 9.714c7.166 0 13.895 3.054 18.411 7.99.642.7.594 1.789-.107 2.43-.7.642-1.787.594-2.429-.107-3.84-4.199-9.69-6.881-15.874-6.881-6.185 0-12.034 2.682-15.875 6.881a1.717 1.717 0 0 1-2.429.108 1.721 1.721 0 0 1-.107-2.431c4.516-4.936 11.245-7.99 18.41-7.99m.006 9.143c4.568 0 8.74 1.957 11.576 5.137a1.717 1.717 0 0 1-.143 2.425c-.71.63-1.799.566-2.43-.143-2.19-2.458-5.416-3.995-9.003-3.995-3.588 0-6.813 1.537-9.004 3.995a1.724 1.724 0 0 1-2.43.143 1.716 1.716 0 0 1-.143-2.425c2.835-3.18 7.008-5.137 11.577-5.137m-.01 9.714c3.132 0 5.709 2.58 5.709 5.715S28.837 40 25.704 40c-3.132 0-5.709-2.579-5.709-5.714 0-3.136 2.577-5.715 5.71-5.715m.01 3.429a2.262 2.262 0 0 0-2.291 2.286 2.262 2.262 0 0 0 2.29 2.285 2.262 2.262 0 0 0 2.291-2.285A2.262 2.262 0 0 0 25.715 32"/></g></g></g></svg>