<svg xmlns="http://www.w3.org/2000/svg" width="54" height="40" viewBox="0 0 54 40"><defs><clipPath id="lxbra"><path d="M0 0h53.19v39.491H0z"/></clipPath></defs><g><g><g/><g clip-path="url(#lxbra)"><path d="M50.626 37.889h1.763c.48 0 .8.321.8.801 0 .481-.32.801-.8.801H.8c-.48 0-.801-.32-.801-.8 0-.48.32-.802.8-.802h1.202V10.894c0-.24.08-.641.481-.962C4.326 8.17 13.377 8.09 17.623 8.17V3.284C17.623.4 27.957 0 34.125 0c6.168 0 16.501.4 16.501 3.284zM26.675 27.395h5.527v-5.527h-5.527zm.08-7.129h5.447V14.74h-5.447zm-.08-7.05h5.527V7.69h-5.527zm0 15.782v4.395h5.527v-4.395zm5.527-27.396c-2.083 0-3.925.08-5.527.24v4.246h5.527zm-5.527 33.404v2.804h5.527v-2.804zm22.35-31.722c-.642-.721-5.689-1.762-14.9-1.762h-.321V37.81h15.22zm-29.8 34.526h5.918V1.922c-3.519.32-5.518.881-5.918 1.362zm-15.62 0h13.938V9.692c-6.97-.16-12.977.481-13.938 1.282z"/></g></g></g></svg>