<svg xmlns="http://www.w3.org/2000/svg" width="47" height="44" viewBox="0 0 47 44"><g><g><g><path d="M29.949 44c5.504-3.667 9.722-8.067 12.654-13.2C45.534 25.667 47 20.503 47 15.308c0-5.194-1.107-9.044-3.32-11.55C41.465 1.253 38.892 0 35.961 0c-2.932 0-5.325.917-7.18 2.75C26.927 4.583 26 6.906 26 9.717c0 5.255 2.872 8.555 8.615 9.9 2.753.733 4.129 2.26 4.129 4.583 0 5.744-3.83 11.183-11.488 16.317z"/></g><g><path d="M3.949 44c5.504-3.667 9.722-8.067 12.654-13.2C19.534 25.667 21 20.503 21 15.308c0-5.194-1.107-9.044-3.32-11.55C15.465 1.253 12.892 0 9.961 0 7.03 0 4.637.917 2.782 2.75.927 4.583 0 6.906 0 9.717c0 5.255 2.872 8.555 8.615 9.9 2.753.733 4.129 2.26 4.129 4.583 0 5.744-3.83 11.183-11.488 16.317z"/></g></g></g></svg>