<svg xmlns="http://www.w3.org/2000/svg" width="30" height="30" viewBox="0 0 30 30"><g><g><g><g><path fill="#231f20" d="M14.645 12.45c-1.453 0-2.635 1.199-2.635 2.673 0 1.473 1.182 2.672 2.635 2.672 1.453 0 2.635-1.2 2.635-2.672 0-1.474-1.182-2.673-2.635-2.673"/></g><g><path fill="#231f20" d="M17.958 8.57c.961 0 1.769.305 2.334.884.563.574.86 1.389.86 2.356v6.717c0 .995-.301 1.818-.872 2.384-.565.56-1.381.856-2.36.856h-6.549c-.954 0-1.761-.298-2.334-.863-.587-.577-.897-1.412-.897-2.415v-6.68c0-.987.297-1.809.86-2.376.56-.565 1.367-.863 2.334-.863h6.624m-3.312 10.714c2.262 0 4.103-1.867 4.103-4.161 0-2.295-1.84-4.162-4.103-4.162-2.262 0-4.104 1.867-4.104 4.162 0 2.294 1.842 4.161 4.104 4.161m4.262-7.48a.94.94 0 0 0 .937-.945.94.94 0 0 0-.937-.944.941.941 0 0 0-.936.944c0 .523.42.945.936.945"/></g><g/><g><path fill="#231f20" d="M14.775 0c8.159 0 14.774 6.708 14.774 14.984 0 8.275-6.615 14.984-14.774 14.984C6.615 29.968 0 23.258 0 14.984 0 6.708 6.615 0 14.775 0zm7.844 11.802c0-1.367-.444-2.544-1.286-3.403-.848-.865-2.015-1.323-3.376-1.323h-6.624c-2.788 0-4.663 1.9-4.663 4.726v6.676c0 1.413.465 2.617 1.343 3.48.853.84 2.014 1.284 3.357 1.284h6.55c1.369 0 2.54-.443 3.385-1.28.86-.85 1.314-2.042 1.314-3.446z"/></g></g></g></g></svg>